8_US_stride4.mot
nRows=153
nColumns=3

name 8_US_stride4.mot
datacolumns 3
datarows 153
range 1.690000 2.450000
endheader
time	soleus_l	med_gas_l
        1.6900000000	       34.9448482590	       38.8201075440	
        1.6950000000	       35.0200306709	       38.6294340945	
        1.7000000000	       35.0275686445	       38.3365929929	
        1.7050000000	       34.9640490747	       37.8356641457	
        1.7100000000	       34.7257031834	       37.1202959133	
        1.7150000000	       34.3532215260	       36.3691925856	
        1.7200000000	       33.9375726429	       35.7080175459	
        1.7250000000	       33.6467522157	       35.3084148867	
        1.7300000000	       33.4116249241	       34.9749226975	
        1.7350000000	       33.2968217896	       34.7068876884	
        1.7400000000	       33.3575147789	       34.5399636113	
        1.7450000000	       33.5819320949	       34.3880491948	
        1.7500000000	       33.8905138263	       34.1643740899	
        1.7550000000	       34.1399298213	       33.9104086914	
        1.7600000000	       34.3134028943	       33.6294467429	
        1.7650000000	       34.4414010945	       33.2102304200	
        1.7700000000	       34.4148438309	       32.7880600332	
        1.7750000000	       34.2942327291	       32.4339124505	
        1.7800000000	       34.0651717733	       32.1707930720	
        1.7850000000	       33.7967573464	       32.0104435531	
        1.7900000000	       33.5786295716	       31.9395703483	
        1.7950000000	       33.2950204536	       31.8933659097	
        1.8000000000	       32.9815049871	       31.8568968364	
        1.8050000000	       32.6867298520	       31.8138479572	
        1.8100000000	       32.3549023870	       31.7119434992	
        1.8150000000	       32.0674910158	       31.5505152514	
        1.8200000000	       31.8608030491	       31.3752124848	
        1.8250000000	       31.6723779721	       31.1537705396	
        1.8300000000	       31.4591032718	       30.8081140338	
        1.8350000000	       31.2858788397	       30.4300053220	
        1.8400000000	       31.1381472337	       30.0372373676	
        1.8450000000	       31.0307155877	       29.7412609467	
        1.8500000000	       30.9377110783	       29.5073012642	
        1.8550000000	       30.7976668861	       29.2462464146	
        1.8600000000	       30.6226041060	       29.0594586216	
        1.8650000000	       30.3958961105	       28.9330091543	
        1.8700000000	       30.0953357181	       28.8337408301	
        1.8750000000	       29.7338465608	       28.7415206771	
        1.8800000000	       29.3983603954	       28.6550879315	
        1.8850000000	       28.9204960443	       28.5209370178	
        1.8900000000	       28.3127458587	       28.3346370363	
        1.8950000000	       27.6731790510	       28.1270120859	
        1.9000000000	       27.0237483426	       27.9153859001	
        1.9050000000	       26.3666714411	       27.7115989978	
        1.9100000000	       25.8858933694	       27.5716132626	
        1.9150000000	       25.4108450490	       27.4355884093	
        1.9200000000	       24.7992952832	       27.2542550722	
        1.9250000000	       24.2097676708	       27.0507887072	
        1.9300000000	       23.5982221447	       26.7956111612	
        1.9350000000	       22.9995432121	       26.5021044092	
        1.9400000000	       22.4930036105	       26.2273644299	
        1.9450000000	       22.1009567565	       26.0046913746	
        1.9500000000	       21.6723507051	       25.7670139062	
        1.9550000000	       21.3491016425	       25.6253099401	
        1.9600000000	       21.2020456488	       25.6021092408	
        1.9650000000	       21.1759867975	       25.6845285897	
        1.9700000000	       21.3112544757	       25.8653195816	
        1.9750000000	       21.4798648716	       26.0243374641	
        1.9800000000	       21.7164479481	       26.1969454769	
        1.9850000000	       22.0406602414	       26.3753325818	
        1.9900000000	       22.3856124934	       26.5079118295	
        1.9950000000	       22.7372669039	       26.6016950538	
        2.0000000000	       22.9959938424	       26.6667453859	
        2.0050000000	       23.2321565022	       26.7337103791	
        2.0100000000	       23.5443099852	       26.8604883759	
        2.0150000000	       23.8315166738	       27.0195753856	
        2.0200000000	       24.1153224358	       27.1932964313	
        2.0250000000	       24.4305490958	       27.3657731108	
        2.0300000000	       24.7520872092	       27.4989096700	
        2.0350000000	       25.0272663853	       27.5798773717	
        2.0400000000	       25.4238979191	       27.6658833139	
        2.0450000000	       25.8915071791	       27.7574863729	
        2.0500000000	       26.3688672390	       27.8641449897	
        2.0550000000	       26.8296531652	       27.9964738736	
        2.0600000000	       27.2414954172	       28.1405759481	
        2.0650000000	       27.4973594404	       28.2360011789	
        2.0700000000	       27.7418350858	       28.3134832455	
        2.0750000000	       28.0120357606	       28.3618236736	
        2.0800000000	       28.2517992651	       28.3641713357	
        2.0850000000	       28.5206933596	       28.3392175941	
        2.0900000000	       28.8328638841	       28.3181239567	
        2.0950000000	       29.1219336872	       28.3174931506	
        2.1000000000	       29.3845828432	       28.3370856539	
        2.1050000000	       29.7402536268	       28.3923415734	
        2.1100000000	       30.0695346666	       28.4772580523	
        2.1150000000	       30.3517611992	       28.5888689998	
        2.1200000000	       30.5673397992	       28.7118997377	
        2.1250000000	       30.7185040586	       28.8283058988	
        2.1300000000	       30.9236149409	       29.0201813551	
        2.1350000000	       31.1587785433	       29.2673305540	
        2.1400000000	       31.4128807303	       29.5360465642	
        2.1450000000	       31.6930997971	       29.8088883922	
        2.1500000000	       31.9723418029	       30.0437060974	
        2.1550000000	       32.1677465951	       30.1787345934	
        2.1600000000	       32.3519766673	       30.2703432214	
        2.1650000000	       32.5357381334	       30.3164419872	
        2.1700000000	       32.6729322117	       30.3135309982	
        2.1750000000	       32.7938711929	       30.2892724508	
        2.1800000000	       32.9376861917	       30.2760580286	
        2.1850000000	       33.0888488862	       30.2781328183	
        2.1900000000	       33.2479711403	       30.2998227489	
        2.1950000000	       33.5017657940	       30.3420849340	
        2.2000000000	       33.7870870359	       30.3884667170	
        2.2050000000	       34.0713987216	       30.4238402622	
        2.2100000000	       34.3448585110	       30.4426987997	
        2.2150000000	       34.5902413927	       30.4484418924	
        2.2200000000	       34.7594067534	       30.4463693968	
        2.2250000000	       34.9581653053	       30.4417446228	
        2.2300000000	       35.1870862490	       30.4333704715	
        2.2350000000	       35.4176824723	       30.4221714159	
        2.2400000000	       35.6576393094	       30.4050730364	
        2.2450000000	       35.8366090077	       30.3885371697	
        2.2500000000	       36.0269329041	       30.3725134743	
        2.2550000000	       36.2626744403	       30.3616986608	
        2.2600000000	       36.5068493777	       30.3792277558	
        2.2650000000	       36.7686862934	       30.4399823381	
        2.2700000000	       37.0774724988	       30.5586959848	
        2.2750000000	       37.3575332096	       30.6981268562	
        2.2800000000	       37.6059412367	       30.8425761421	
        2.2850000000	       37.9358012353	       31.0574447822	
        2.2900000000	       38.2333778021	       31.2803430338	
        2.2950000000	       38.4667449708	       31.4896393651	
        2.3000000000	       38.6317754151	       31.6861572625	
        2.3050000000	       38.7275455065	       31.8703656404	
        2.3100000000	       38.7667035423	       32.0170159685	
        2.3150000000	       38.7653881541	       32.2350836455	
        2.3200000000	       38.7212410327	       32.5746193356	
        2.3250000000	       38.5973320831	       33.0315977415	
        2.3300000000	       38.4040704749	       33.6076490960	
        2.3350000000	       38.1515893883	       34.2952170259	
        2.3400000000	       37.9347374524	       34.8800323267	
        2.3450000000	       37.7308224333	       35.4591520905	
        2.3500000000	       37.4972800036	       36.2215340422	
        2.3550000000	       37.3606581680	       36.8395970992	
        2.3600000000	       37.3448746863	       37.3216173279	
        2.3650000000	       37.3699810448	       37.6422780276	
        2.3700000000	       37.4349947497	       37.8010577884	
        2.3750000000	       37.4730894747	       37.8654472717	
        2.3800000000	       37.4523950347	       37.8977589858	
        2.3850000000	       37.3557134695	       37.9310046385	
        2.3900000000	       37.1392896930	       37.9926359139	
        2.3950000000	       36.8466688069	       38.1082458613	
        2.4000000000	       36.6118822849	       38.2185747146	
        2.4050000000	       36.3267653375	       38.3602631651	
        2.4100000000	       36.0224025349	       38.4997606761	
        2.4150000000	       35.7694284886	       38.5665032919	
        2.4200000000	       35.5510201691	       38.5547737299	
        2.4250000000	       35.3430301007	       38.4506397894	
        2.4300000000	       35.1912444581	       38.3234153465	
        2.4350000000	       35.0515383860	       38.1792738591	
        2.4400000000	       34.8758924018	       37.9876733486	
        2.4450000000	       34.7130877088	       37.8259043842	
        2.4500000000	       34.5473763917	       37.7077045915	
